<svg width="40" height="40" viewBox="0 0 40 40" fill="none" xmlns="http://www.w3.org/2000/svg">
<path d="M19.8095 39.6518C17.2094 39.6025 14.6448 39.0388 12.2638 37.9931C9.88279 36.9475 7.73251 35.4406 5.93696 33.5594C4.14142 31.6783 2.73626 29.4601 1.80254 27.033C0.868812 24.6059 0.424961 22.0179 0.496766 19.4184C0.651197 14.3504 2.7762 9.54248 6.42005 6.01677C10.0639 2.49105 14.9392 0.525588 20.0095 0.538221C22.6277 0.510218 25.2245 1.01157 27.6441 2.01218C30.0637 3.01278 32.2562 4.492 34.0899 6.36104C35.9235 8.23007 37.3606 10.4504 38.3148 12.8886C39.269 15.3269 39.7207 17.9328 39.6427 20.55C39.5163 25.7034 37.3631 30.5991 33.6502 34.1752C29.9373 37.7512 24.964 39.719 19.8095 39.6518ZM37.847 19.9586C37.8532 17.6386 37.4015 15.3402 36.5181 13.195C35.6346 11.0498 34.3367 9.09989 32.6987 7.45699C31.0606 5.8141 29.1147 4.51046 26.9721 3.62073C24.8295 2.73101 22.5323 2.27267 20.2124 2.27197C15.4766 2.24428 10.9236 4.09888 7.55515 7.42782C4.18666 10.7568 2.27859 15.2874 2.25035 20.0232C2.22513 22.3796 2.67146 24.7173 3.56313 26.8986C4.45481 29.0799 5.77366 31.0609 7.44232 32.7248C9.11098 34.3888 11.0957 35.7022 13.2795 36.5878C15.4633 37.4733 17.8021 37.9131 20.1585 37.8812C22.4979 37.8693 24.812 37.3958 26.9682 36.4881C29.1243 35.5803 31.0802 34.256 32.7236 32.5911C34.3671 30.9262 35.6659 28.9534 36.5457 26.7857C37.4254 24.618 37.8689 22.298 37.8505 19.9586H37.847Z" fill="white"/>
<path d="M28.5405 20.1194C28.5405 21.3443 28.5754 22.5711 28.5313 23.7946C28.5309 24.5338 28.3585 25.2627 28.0276 25.9237C27.6967 26.5847 27.2165 27.1595 26.625 27.6028C26.0273 28.0815 25.3008 28.3717 24.5378 28.4366C22.9991 28.5391 21.4566 28.6065 19.9146 28.6312C18.6911 28.6487 17.4655 28.5987 16.2426 28.5417C15.1554 28.4997 14.1125 28.1007 13.2749 27.4063C12.7652 26.9963 12.3533 26.4778 12.0692 25.8886C11.7851 25.2994 11.6358 24.6543 11.6323 24.0002C11.5675 21.4286 11.5312 18.8511 11.6323 16.284C11.7387 13.6048 13.4052 11.9468 16.0721 11.6887C17.0725 11.6015 18.0767 11.568 19.0807 11.5882C20.8431 11.607 22.6056 11.6485 24.366 11.7289C25.4506 11.8367 26.4617 12.326 27.2191 13.1098C27.9765 13.8936 28.431 14.9208 28.5016 16.0085C28.5619 16.6912 28.5813 17.3786 28.5969 18.0639C28.6124 18.7493 28.6002 19.436 28.6002 20.122L28.5405 20.1194ZM13.3183 20.1194H13.2774C13.2774 20.7075 13.2722 21.2963 13.2774 21.8838C13.2845 22.4959 13.2995 23.1086 13.3164 23.7207C13.3689 25.5843 14.3071 26.6918 16.1733 26.8C18.3461 26.9297 20.5286 26.8999 22.7067 26.9116C23.2451 26.9007 23.782 26.8476 24.3122 26.7527C24.8915 26.6942 25.4358 26.448 25.8625 26.0517C26.2891 25.6554 26.5747 25.1306 26.6757 24.5572C26.7949 24.0313 26.8599 23.4947 26.8701 22.9556C26.8902 20.9455 26.8909 18.9354 26.8617 16.9253C26.836 16.3885 26.7563 15.8556 26.6237 15.3348C26.5565 14.9698 26.3956 14.6286 26.1569 14.3444C25.9182 14.0603 25.6099 13.843 25.262 13.7137C24.6493 13.4738 24.0024 13.3333 23.3454 13.2974C21.3626 13.2404 19.377 13.2605 17.3929 13.2696C16.928 13.2746 16.4642 13.3164 16.0059 13.3947C15.6245 13.4226 15.2524 13.5256 14.911 13.6977C14.5695 13.8699 14.2653 14.1079 14.0161 14.3979C13.7668 14.688 13.5774 15.0245 13.4587 15.388C13.3399 15.7515 13.2942 16.1349 13.3241 16.5162C13.3047 17.7145 13.3183 18.9153 13.3183 20.1162V20.1194Z" fill="white"/>
<path d="M20.0124 15.6868C20.5962 15.6806 21.1755 15.79 21.7169 16.0086C22.2583 16.2272 22.7511 16.5507 23.167 16.9605C23.5828 17.3703 23.9134 17.8583 24.1399 18.3964C24.3664 18.9346 24.4842 19.5122 24.4866 20.096C24.4923 21.2497 24.0415 22.3588 23.2327 23.1814C22.4238 24.004 21.3224 24.4734 20.1688 24.4871C18.9912 24.5002 17.8558 24.0489 17.0086 23.2309C16.1614 22.4129 15.6704 21.2941 15.6421 20.1167C15.6381 18.9509 16.0955 17.8308 16.9143 17.0009C17.733 16.171 18.8467 15.6986 20.0124 15.6868ZM22.7638 20.096C22.777 19.7353 22.7161 19.3756 22.585 19.0393C22.454 18.703 22.2555 18.397 22.0017 18.1404C21.7479 17.8837 21.4442 17.6817 21.1093 17.5469C20.7745 17.4121 20.4156 17.3473 20.0547 17.3564C19.6929 17.3583 19.3352 17.4327 19.0026 17.5751C18.67 17.7175 18.3694 17.925 18.1183 18.1855C17.8673 18.446 17.6709 18.7541 17.5408 19.0917C17.4108 19.4293 17.3497 19.7895 17.3611 20.1511C17.3576 20.5064 17.426 20.8587 17.5622 21.1868C17.6984 21.515 17.8996 21.8122 18.1536 22.0606C18.4077 22.3089 18.7094 22.5033 19.0406 22.632C19.3717 22.7608 19.7254 22.8212 20.0805 22.8096C20.7954 22.804 21.4791 22.5155 21.9819 22.0072C22.4847 21.4989 22.7658 20.8122 22.7638 20.0973V20.096Z" fill="white"/>
<path d="M25.7095 15.5823C25.7128 15.671 25.7028 15.7597 25.6798 15.8455C25.6181 16.0515 25.4974 16.235 25.3328 16.3733C25.2118 16.4881 25.0661 16.5736 24.9069 16.623C24.7477 16.6725 24.5793 16.6847 24.4146 16.6586C24.1611 16.6063 23.9323 16.4712 23.764 16.2746C23.5956 16.078 23.4975 15.831 23.4849 15.5725C23.4861 15.4245 23.5169 15.2782 23.5754 15.1422C23.6339 15.0062 23.7189 14.8833 23.8255 14.7806C23.9322 14.6779 24.0583 14.5976 24.1964 14.5443C24.3346 14.491 24.4819 14.4658 24.6299 14.4702C24.8027 14.4848 24.97 14.538 25.1195 14.6258C25.2882 14.7253 25.43 14.8644 25.5328 15.031C25.6357 15.1977 25.6963 15.3869 25.7095 15.5823Z" fill="white"/>
</svg>
