<svg width="40" height="40" viewBox="0 0 40 40" fill="none" xmlns="http://www.w3.org/2000/svg">
<path d="M19.9123 0.509593C22.4924 0.521544 25.0446 1.04295 27.4227 2.04387C29.8007 3.0448 31.9577 4.50554 33.7697 6.34224C35.5817 8.17894 37.0132 10.3554 37.9819 12.7468C38.9506 15.1381 39.4372 17.6973 39.4143 20.2773C39.391 22.8817 38.8485 25.4552 37.8182 27.8473C36.788 30.2394 35.2909 32.4019 33.4145 34.2081C31.5382 36.0144 29.3201 37.4282 26.8905 38.3666C24.461 39.305 21.8687 39.7493 19.2653 39.6734C14.0818 39.508 9.17346 37.3014 5.60909 33.5342C2.04473 29.767 0.112949 24.7441 0.234403 19.5594C0.3714 14.4414 2.50811 9.58075 6.18661 6.01967C9.86512 2.45859 14.7926 0.480532 19.9123 0.509593ZM19.9445 2.27655C17.5647 2.2638 15.2065 2.7272 13.0084 3.63948C10.8103 4.55177 8.81677 5.8945 7.14534 7.58867C5.47392 9.28284 4.15829 11.2942 3.2758 13.5044C2.3933 15.7147 1.9617 18.0791 2.00661 20.4585C2.04826 22.8044 2.55469 25.1187 3.49664 27.2676C4.43858 29.4165 5.79744 31.3572 7.49435 32.9775C9.19126 34.5978 11.1925 35.8655 13.3826 36.7072C15.5726 37.549 17.9079 37.948 20.2532 37.8813C24.8891 37.7727 29.2998 35.8595 32.5467 32.5489C35.7937 29.2383 37.6206 24.7914 37.6392 20.1543C37.6656 17.8147 37.2273 15.4931 36.3497 13.3241C35.472 11.1551 34.1725 9.18195 32.5266 7.51897C30.8806 5.85599 28.9211 4.53629 26.7613 3.63638C24.6014 2.73648 22.2843 2.27427 19.9445 2.27655Z" fill="white"/>
<path d="M20.4591 26.4695H17.6588C17.6069 26.4228 17.5894 26.4103 17.5744 26.3926C17.5594 26.3749 17.5351 26.3595 17.5314 26.34C17.5038 26.2326 17.4865 26.1232 17.4795 26.0129C17.4841 23.3319 17.4917 20.6509 17.5025 17.97C17.5237 17.8796 17.557 17.7922 17.6014 17.7097C18.3994 17.7097 19.2172 17.7056 20.0352 17.7097C20.083 17.7072 20.1308 17.7143 20.1754 17.7306C20.2201 17.7469 20.2606 17.772 20.2941 17.8042C20.3277 17.8364 20.3535 17.875 20.3701 17.9175C20.3867 17.9599 20.3936 18.0052 20.3902 18.0504C20.3977 18.1834 20.3902 18.3165 20.3902 18.5347C20.5658 18.4165 20.6896 18.3408 20.8064 18.255C21.2788 17.8969 21.8376 17.6555 22.4329 17.5523C23.0282 17.449 23.6413 17.4873 24.2171 17.6636C24.7544 17.8117 25.2351 18.1031 25.602 18.503C25.9688 18.9029 26.2062 19.3944 26.2856 19.9186C26.383 20.3105 26.4352 20.7113 26.4412 21.1138C26.46 22.7697 26.4518 24.4209 26.4505 26.075C26.4416 26.1979 26.425 26.3201 26.4011 26.4411H23.5109C23.4916 26.2323 23.4597 26.0419 23.4591 25.8497C23.4559 24.5309 23.4648 23.2127 23.456 21.8945C23.4555 21.6049 23.4232 21.3161 23.3597 21.0328C23.3397 20.7488 23.2016 20.4839 22.9757 20.2961C22.7498 20.1082 22.4545 20.0127 22.1543 20.0304C21.8224 19.9831 21.4838 20.0547 21.2048 20.2312C20.9258 20.4078 20.7264 20.6765 20.6458 20.9849C20.5467 21.398 20.4964 21.8203 20.4958 22.244C20.4796 23.4061 20.4958 24.5682 20.4958 25.7302C20.4971 25.9502 20.4753 26.1685 20.4591 26.4695Z" fill="white"/>
<path d="M13.0745 17.4956H16.4971C16.5828 18.2416 16.6038 18.9916 16.56 19.7399C16.5829 20.4733 16.5733 21.2079 16.5748 21.9412C16.5748 22.6976 16.5748 23.454 16.5748 24.211C16.5748 24.9389 16.5748 25.6632 16.5748 26.4681C15.448 26.4681 14.4227 26.473 13.3973 26.4645C13.3403 26.4665 13.2832 26.4581 13.2305 26.44C13.1778 26.4219 13.1307 26.3945 13.0924 26.3598C13.0542 26.325 13.0258 26.2837 13.0093 26.2389C12.9928 26.1941 12.9885 26.1468 12.9968 26.1005C12.9968 25.8257 13.01 25.5504 13.0107 25.2756C13.0157 22.8897 13.0204 20.5048 13.0248 18.121C13.0234 17.9275 13.0546 17.7285 13.0745 17.4956Z" fill="white"/>
<path d="M14.7999 16.5979C14.3278 16.5917 13.8762 16.4044 13.5395 16.0749C13.2027 15.7455 13.0069 15.2994 12.9927 14.8297C13.0102 14.3609 13.2017 13.9152 13.5302 13.5788C13.8587 13.2424 14.3009 13.0391 14.7712 13.0083C15.2401 13.0418 15.6811 13.2423 16.0136 13.5729C16.3462 13.9035 16.548 14.3423 16.5822 14.8089C16.5733 15.278 16.3832 15.7257 16.0512 16.0589C15.7193 16.392 15.2711 16.5851 14.7999 16.5979Z" fill="white"/>
</svg>
